# xmcd
#
# Track frame offsets:
#	150
#	20282
#	36867
#	57166
#	77521
#	92353
#	108380
#	121698
#	129437
#	148597
#	163185
#	173183
#	190818
#	197641
#	207458
#	221755
#	233388
#	245124
#	258114
#	274243
#	287611
#	299775
#
# Disc length: 4222 seconds
#
# Revision: 1
# Processed by: cddbd v1.5.2PL0 Copyright (c) Steve Scherf et al.
# Submitted via: audiograbber 1.83.01
#
DISCID=40107c16
DTITLE=Lee Hazlewood - Son-of-a-Gun (Lee Hazlewood Songbook)
DYEAR=2016
DGENRE=Pop
TTITLE0=Jarvis Cocker - A Cheat [with Richard Hawley]
TTITLE1=Primal Scream - Some Velvet Morning [feat. Kate Moss]
TTITLE2=Thriftstore Masterpiece - Long Black Train [feat. Frank Black]
TTITLE3=Mark Morriss - My Autumn's Done Come
TTITLE4=Gold Leaves - Won't You Tell Your Dreams
TTITLE5=Frances Ruffelle - Paris Summer [with Rowan John]
TTITLE6=Marc Almond - For One Moment [with the Willing Sinners]
TTITLE7=Boyd Rice and Friends - I'd Rather Be Your Enemy
TTITLE8=Ville Valo - Summer Wine [with Natalia Avelon]
TTITLE9=Dan Michaelson - No Train to Stockholm [with the Costguards]
TTITLE10=Waylon Jennings - She Comes Running
TTITLE11=Mick Harvey - First Street Blues
TTITLE12=The Jesus and Mary Chain - I'm Glad I Never
TTITLE13=Loy Clingman - The Man Who Made an Angel Cry [Mono]
TTITLE14=L.Stadt - Leather and Lace [feat. Ania Dabrowska]
TTITLE15=Virgil Warner - Lady Bird [with Suzi Jane Hokom]
TTITLE16=Sanford Clark - Son-of-a-Gun [Mono]
TTITLE17=Billie Dearborn - Friday's Child [Mono]
TTITLE18=Dean and Britta - You Turned My Head Around
TTITLE19=Gallon Drunk - Look at That Woman [with Ian Johnston]
TTITLE20=The Boys Next Door - These Boot Are Made for Walking
TTITLE21=Holly Golightly - Sand [with Brian Nevill] [Mono]
EXTD=
EXTT0=
EXTT1=
EXTT2=
EXTT3=
EXTT4=
EXTT5=
EXTT6=
EXTT7=
EXTT8=
EXTT9=
EXTT10=
EXTT11=
EXTT12=
EXTT13=
EXTT14=
EXTT15=
EXTT16=
EXTT17=
EXTT18=
EXTT19=
EXTT20=
EXTT21=
PLAYORDER=
